<svg width="92" height="31" viewBox="0 0 92 31" fill="none" xmlns="http://www.w3.org/2000/svg">
<path d="M35.5091 9.99025C39.6618 6.84497 43.7851 3.66017 47.9513 0.53183C48.8729 1.70637 49.7933 2.8809 50.7138 4.05657C48.3252 5.89517 45.9388 7.73716 43.5163 9.53285C46.8073 9.57464 50.0994 9.52608 53.3904 9.55319C54.4011 9.57238 55.4334 9.49445 56.4148 9.78809C58.6713 10.3946 60.5449 12.2953 61.0181 14.5969C61.1954 15.4767 61.1751 16.3847 61.3761 17.26C61.6923 18.2357 63.1198 18.5305 63.8291 17.8077C64.2842 17.4474 64.3633 16.8353 64.37 16.2955C64.3971 14.4162 64.344 12.537 64.3712 10.6577C65.8811 10.6566 67.3911 10.6577 68.901 10.6577C68.9496 12.8012 68.805 14.9493 68.9631 17.0894C69.0727 17.8619 69.9367 18.2786 70.6538 18.1657C71.284 18.1059 71.9017 17.6202 71.939 16.9584C72.0915 14.8725 71.956 12.782 71.9876 10.6938C73.4964 10.695 75.0041 10.6803 76.5129 10.6859C76.4779 13.2044 76.6135 15.7285 76.3695 18.2402C77.0663 18.2267 77.7643 18.2109 78.4622 18.2177C78.137 16.6727 78.0432 14.9911 78.7242 13.524C79.6594 11.2517 81.9949 9.63788 84.4535 9.57577C86.7461 9.50349 89.041 9.56899 91.3336 9.54189C91.32 13.9261 91.3336 18.3091 91.3268 22.6933C84.6263 22.7193 77.9258 22.6719 71.2253 22.6933C70.586 22.6832 69.9389 22.7351 69.3087 22.603C68.351 22.4132 67.4735 21.9592 66.6423 21.4634C64.352 23.0954 61.0147 23.0728 58.7955 21.3211C57.6571 22.0044 56.4204 22.6572 55.0607 22.6775C47.1393 22.6956 39.2168 22.6775 31.2955 22.6922C31.2955 21.4906 31.2853 20.2889 31.3328 19.0884C30.6145 20.5216 29.3948 21.7255 27.8904 22.3105C27.0592 22.6436 26.1501 22.7317 25.2613 22.6911C24.0574 22.6086 22.954 22.0564 21.9274 21.4623C20.3723 22.5363 18.4162 22.8255 16.5652 22.7024C16.4342 24.5963 15.8108 26.4993 14.5707 27.9618C13.5362 29.1522 12.1686 30.0658 10.6439 30.4904C8.48008 31.115 6.04178 30.8507 4.12186 29.6468C1.83603 28.2961 0.279767 25.7471 0.21991 23.0807C0.179253 20.9304 0.215393 18.7801 0.208616 16.6298C1.70051 16.6286 3.1924 16.6286 4.68428 16.6298C4.69445 18.4774 4.65944 20.3251 4.68767 22.1727C4.70574 22.6945 4.67864 23.2298 4.83675 23.7357C5.32915 25.4173 7.16211 26.6156 8.90246 26.2983C10.3413 26.0701 11.5903 24.9227 11.9145 23.4997C12.0195 23.0638 11.9935 22.612 12.0003 22.167C12.0263 18.3408 12.0511 14.5133 12.0398 10.6859C13.5317 10.6859 15.0236 10.6848 16.5144 10.6871C16.5144 13.2078 16.5144 15.7285 16.5155 18.2493C17.2372 18.1951 17.9859 18.3091 18.685 18.0776C19.0904 17.9364 19.4925 17.6033 19.5286 17.1493C19.7726 14.9899 19.5648 12.817 19.6325 10.6509C21.1504 10.66 22.6671 10.6622 24.1839 10.6498C24.2415 12.799 24.0676 14.9527 24.2573 17.0973C24.3601 17.8687 25.2342 18.2933 25.9502 18.1657C26.5781 18.0946 27.1789 17.6112 27.2399 16.9573C27.3947 14.8702 27.2456 12.7753 27.2941 10.6848C28.7838 10.6984 30.2734 10.6893 31.7619 10.7085C31.7088 13.2157 31.8455 15.7274 31.6546 18.2312C39.384 18.1714 47.1133 18.2707 54.8427 18.1781C55.9269 18.1714 56.7197 17.0951 56.7073 16.0696C56.7446 15.1277 55.9879 14.2479 55.0663 14.1011C54.4011 13.9825 53.7224 14.0277 53.0515 14.0187C47.2037 14.0345 41.3559 14.0164 35.5091 14.0322C35.508 12.6849 35.508 11.3376 35.5091 9.99025ZM84.2017 14.1429C83.6076 14.2965 83.1039 14.7347 82.8498 15.2904C82.3845 16.3158 82.9424 17.6891 84.0187 18.0539C84.9448 18.2583 85.9025 18.1612 86.8444 18.1894C86.8455 16.798 86.8455 15.4055 86.8444 14.0142C85.9646 14.056 85.0645 13.9125 84.2017 14.1429Z" fill="#2C3191"/>
<path d="M71.9944 2.97125C73.5054 2.97125 75.0165 2.97012 76.5276 2.97238C76.5084 4.37957 76.5141 5.78676 76.5197 7.19394C75.0222 7.44918 73.4829 7.44692 71.9865 7.18717C71.9944 5.78224 72.0068 4.37731 71.9944 2.97125Z" fill="#2C3191"/>
<path d="M84.7211 2.96448C86.2108 2.97464 87.7004 2.97464 89.1912 2.96335C89.1821 4.37392 89.1957 5.78563 89.1844 7.1962C87.7094 7.45257 86.195 7.44579 84.7211 7.18942C84.72 5.78111 84.7211 4.3728 84.7211 2.96448Z" fill="#2C3191"/>
<path d="M85.497 25.7742C85.9657 25.0017 86.5055 24.2699 87.1538 23.6386C87.2419 23.9074 87.3288 24.1784 87.4158 24.4495C87.2046 24.4743 86.9968 24.5014 86.789 24.5274C86.9573 24.733 87.1278 24.9374 87.2995 25.1429C87.5253 24.7578 87.7343 24.3637 87.9816 23.9921C88.2312 24.1671 88.5418 24.4122 88.4367 24.7623C88.2764 25.3146 87.8009 25.6884 87.4689 26.1356C88.4164 26.1526 89.3775 26.0633 90.3137 26.2463C91.224 26.5558 91.3482 27.8444 90.8558 28.5592C90.6209 28.9285 90.1681 29.0268 89.7615 29.037C88.3577 29.1499 86.9505 29.0595 85.5456 29.0528C85.0995 30.0692 84.0593 30.6723 83 30.8518C82.9932 30.0477 83.7307 29.6095 84.3767 29.3317C84.4591 28.3695 84.4704 27.405 84.4919 26.4406C84.781 26.4394 85.0712 26.4394 85.3615 26.4406C85.3886 26.9646 85.4123 27.4897 85.4383 28.0149C87.0058 28.0138 88.5734 28.016 90.1409 28.0138C90.1409 27.7235 90.1443 27.4355 90.1489 27.1475C88.6807 27.1453 87.2125 27.1543 85.7443 27.1227C85.9894 26.6404 86.2345 26.1593 86.4796 25.6771C86.1509 25.7087 85.8245 25.7426 85.497 25.7742Z" fill="#2C3191"/>
<path d="M76.8901 28.2521C76.7004 27.2605 77.2188 26.331 77.4243 25.3857C78.1087 25.8906 78.9591 26.2079 79.4798 26.9092C79.8321 27.3723 79.7463 28.0171 79.4899 28.5039C78.9264 29.4413 77.229 29.3295 76.8901 28.2521ZM77.9371 27.0606C77.5937 27.4615 77.8479 27.9889 78.1358 28.3368C78.4295 28.1154 78.7209 27.8918 79.0134 27.6682C78.6633 27.4615 78.3425 27.1238 77.9371 27.0606Z" fill="#2C3191"/>
<path d="M60.0163 25.8838C62.9594 25.877 65.9025 25.8928 68.8468 25.8906C68.8457 27.1961 68.8479 28.5016 68.8457 29.8072C67.3447 29.9766 65.8585 30.2962 64.3463 30.3335C62.8894 30.2544 61.4528 29.9777 60.0073 29.7925C60.0253 28.4892 60.0107 27.1871 60.0163 25.8838Z" fill="#2C3191"/>
<path d="M80.2365 27.2255C80.4578 26.156 81.9576 25.7584 82.729 26.4925C83.1841 27.2706 83.1028 28.2216 82.9842 29.081C82.9447 29.4481 82.808 29.8196 82.5155 30.0613C82.0254 30.4758 81.3816 30.6248 80.8091 30.8869C80.7436 30.5763 80.6803 30.268 80.6182 29.9585C81.1716 29.7202 81.7272 29.4865 82.2829 29.2493C81.6877 29.1115 81.0293 29.0675 80.5279 28.6846C80.0863 28.339 80.1857 27.7134 80.2365 27.2255ZM80.957 27.9178C81.3726 27.9539 81.7871 27.9912 82.2038 28.0273C82.0932 27.6399 81.9813 27.2537 81.8718 26.8675C81.5601 27.2119 81.2518 27.5598 80.957 27.9178Z" fill="#2C3191"/>
</svg>
