<svg width="124" height="70" viewBox="0 0 124 70" fill="none" xmlns="http://www.w3.org/2000/svg">
<path d="M0 0.0279248C11.8862 -0.0109825 23.7724 -0.00125564 35.6586 0.00986074C44.1362 10.9873 52.4554 22.0884 61.0108 33.006C61.2054 33.2506 61.6973 33.3701 61.5764 33.7675C61.4221 34.1288 61.0497 34.4512 60.6482 34.4692C39.8077 34.2177 19.2883 24.3047 6.18071 8.09286C4.07832 5.43743 2.00512 2.75838 0 0.0279248Z" fill="#FA0109"/>
<path d="M62.1239 34.1177C70.8503 22.7609 79.5335 11.3708 88.2529 0.00985423C100.135 0.0154124 112.016 -0.026274 123.896 0.0362556C120.743 4.2702 117.625 8.55835 113.953 12.3657C102.093 24.7632 85.6559 32.6851 68.5575 34.1705C66.6149 34.3261 64.657 34.6193 62.7089 34.3608C62.4907 34.3442 62.3087 34.2177 62.1239 34.1177Z" fill="#FA0109"/>
<path d="M61.5736 34.8779C61.8209 34.7611 62.217 34.6778 62.3907 34.9501C69.4926 44.1934 76.5918 53.4408 83.6479 62.7202C76.4223 65.1881 69.1689 67.5711 61.9293 70.0001C54.7079 67.5364 47.4447 65.1964 40.2357 62.6966C47.007 53.8688 53.7852 45.0452 60.5231 36.1924C60.8524 35.7422 61.0706 35.1697 61.5736 34.8779Z" fill="#FA0109"/>
</svg>
