<svg width="102" height="110" viewBox="0 0 102 110" fill="none" xmlns="http://www.w3.org/2000/svg">
<g clip-path="url(#clip0_47_490)">
<path d="M0.411072 0.225871C10.0716 0.194249 19.7322 0.202154 29.3928 0.211189C36.283 9.13316 43.0445 18.1556 49.998 27.0291C50.1561 27.2278 50.5559 27.3249 50.4577 27.6479C50.3323 27.9416 50.0297 28.2036 49.7033 28.2183C32.7651 28.0139 16.0878 19.957 5.43448 6.7807C3.72575 4.62248 2.04074 2.44507 0.411072 0.225871Z" fill="#FA0109"/>
<path d="M50.9026 27.9325C57.9951 18.7023 65.0524 9.44487 72.1392 0.211189C81.7964 0.215707 91.4524 0.181826 101.109 0.232647C98.546 3.67382 96.0117 7.15903 93.0268 10.2535C83.3877 20.3297 70.0284 26.7682 56.1316 27.9755C54.5528 28.1019 52.9615 28.3402 51.3781 28.1302C51.2008 28.1166 51.0529 28.0139 50.9026 27.9325Z" fill="#FA0109"/>
<path d="M50.4554 28.5503C50.6565 28.4554 50.9783 28.3877 51.1195 28.609C56.8917 36.1216 62.6616 43.6375 68.3965 51.1794C62.5238 53.1851 56.6285 55.122 50.7445 57.0961C44.8752 55.0937 38.9721 53.1919 33.1129 51.1602C38.6163 43.9853 44.1253 36.8139 49.6016 29.6187C49.8693 29.2528 50.0466 28.7875 50.4554 28.5503Z" fill="#FA0109"/>
<path d="M68.4078 98.7628C68.9013 98.7538 69.3949 98.7482 69.8884 98.7391C69.92 100.574 69.9539 102.413 69.8624 104.248C69.7506 105.074 69.0391 105.748 68.2384 105.92C67.1294 106.186 65.9876 106.264 64.856 106.367C64.8153 105.845 64.7159 105.324 64.7555 104.802C65.1123 104.727 65.4568 104.611 65.8058 104.505C65.5968 102.801 65.4918 101.089 65.293 99.3851C65.8182 99.2823 66.3411 99.1672 66.8685 99.0678C66.9995 100.883 67.1452 102.698 67.3812 104.502C67.7212 104.369 68.0611 104.232 68.401 104.098C68.3988 102.319 68.3943 100.54 68.4078 98.7628Z" fill="#FA0109"/>
<path d="M5.42883 105.964C5.46723 103.68 5.4277 101.397 5.46046 99.1129C6.44865 99.1118 7.43797 99.1265 8.42729 99.105C8.74239 100.578 8.94002 102.078 9.16929 103.566C9.52052 102.097 9.77688 100.606 10.0242 99.1163C11.0361 99.1163 12.048 99.1084 13.0599 99.1208C13.0012 101.416 12.9572 103.713 13.0645 106.007C12.4659 106.057 11.8662 106.083 11.2654 106.071C11.0655 104.395 11.2112 102.702 11.0395 101.025C10.7527 102.621 10.5019 104.228 10.0558 105.79C9.51487 105.79 8.97278 105.789 8.43181 105.792C7.96087 104.232 7.71805 102.621 7.45039 101.018C7.33633 102.721 7.31148 104.429 7.20645 106.133C6.61241 106.094 6.02175 106.017 5.42883 105.964Z" fill="#FA0109"/>
<path d="M13.9239 106.007C13.9634 103.713 13.9374 101.418 13.9476 99.1231C15.182 99.1434 16.4582 98.9503 17.6542 99.3456C18.4165 99.5884 19.1099 100.226 19.2138 101.05C19.4103 102.093 19.5063 103.202 19.1675 104.229C18.962 104.868 18.5294 105.45 17.9309 105.767C16.6434 106.238 15.2577 105.995 13.9239 106.007ZM15.7388 104.572C16.0324 104.535 16.3249 104.494 16.6163 104.445C17.216 104.41 17.4882 103.734 17.5412 103.218C17.5763 102.582 17.4938 101.935 17.3459 101.319C17.0646 100.705 16.2854 100.795 15.7343 100.659C15.7376 101.962 15.7218 103.267 15.7388 104.572Z" fill="#FA0109"/>
<path d="M20.0439 106.01C20.2777 103.712 19.9479 101.402 20.1591 99.1028C21.6623 99.1118 23.1655 99.1095 24.6687 99.1039C24.6687 99.6279 24.6709 100.153 24.6642 100.678C23.7189 100.676 22.7725 100.658 21.8272 100.679C21.8667 101.233 21.9593 101.782 21.9831 102.337C22.6957 102.337 23.4072 102.305 24.1198 102.315C24.1311 102.821 24.1243 103.328 24.1413 103.836C23.4196 103.848 22.6968 103.847 21.9752 103.855C21.9616 104.596 21.8566 105.331 21.8362 106.073C21.2388 106.049 20.6425 106.009 20.0439 106.01Z" fill="#FA0109"/>
<path d="M58.7596 100.318C59.5829 100.199 60.4243 100.278 61.2555 100.264C61.2544 100.736 61.2544 101.209 61.26 101.682C60.3215 101.695 59.3841 101.681 58.4468 101.686C58.501 101.232 58.3903 100.662 58.7596 100.318Z" fill="#FA0109"/>
<path d="M48.2023 101.741C48.7365 101.497 49.2877 101.105 49.9043 101.247C51.3792 101.608 52.8214 102.083 54.2704 102.533C54.1338 102.967 54.0231 103.41 53.9034 103.851C53.5352 103.814 53.1715 103.753 52.8045 103.718C52.1461 104.468 51.6153 105.415 50.6689 105.841C49.5666 106.123 48.4135 106.051 47.2864 106.139C47.0752 106.911 46.558 107.578 45.8657 107.978C45.1689 108.404 44.3783 108.647 43.5855 108.821C43.4985 108.348 43.4105 107.873 43.3178 107.402C44.1784 107.082 45.0243 106.721 45.8544 106.327C45.0977 106.129 44.306 106.078 43.5607 105.837C43.0705 105.57 42.7837 105.023 42.7294 104.48C42.6549 103.741 42.8413 102.992 43.1586 102.329C43.5652 101.638 44.4382 101.435 45.1858 101.508C45.6839 101.572 46.2519 101.612 46.6066 102.015C47.1938 102.626 47.1972 103.532 47.3282 104.319C48.339 104.293 49.3904 104.47 50.3651 104.123C50.8247 103.97 51.1793 103.622 51.4527 103.235C50.7841 103.041 50.1234 102.814 49.4435 102.664C49.2944 103.034 49.1386 103.403 49.0008 103.779C48.5445 103.733 48.1188 103.555 47.6783 103.446C47.8409 102.874 48.042 102.314 48.2023 101.741ZM44.4337 103.305C44.3444 103.607 44.2631 103.913 44.192 104.221C44.681 104.223 45.1711 104.244 45.6601 104.255C45.6455 103.927 45.6263 103.601 45.6048 103.276C45.214 103.287 44.8233 103.298 44.4337 103.305Z" fill="#FA0109"/>
<path d="M84.9428 101.543C85.4103 101.132 86.0699 101.244 86.6289 101.342C88.018 101.591 89.3134 102.184 90.6811 102.519C90.5783 102.923 90.4676 103.327 90.3423 103.725C89.895 103.798 89.4455 103.859 88.9938 103.894C89.0085 104.069 89.1993 104.064 89.3224 104.112C90.0294 104.29 90.7646 104.249 91.4886 104.259C91.7517 103.436 91.7483 102.422 92.479 101.839C92.8686 101.55 93.3882 101.537 93.8535 101.497C94.565 101.462 95.3736 101.679 95.7609 102.326C96.1133 103.101 96.1732 103.991 96.0354 104.823C95.9055 105.297 95.6288 105.836 95.107 105.955C94.1742 106.236 93.2041 105.992 92.269 105.867C91.335 105.958 90.3795 106.216 89.4455 105.977C88.9272 105.873 88.4766 105.568 88.1276 105.18C86.9237 106.162 85.259 106.171 83.7919 106.004C83.2024 105.989 82.6106 105.768 82.0256 105.93C79.7646 106.396 77.437 105.494 75.1986 106.145C74.9592 106.337 74.9739 106.726 74.7819 106.97C74.0828 108.08 72.7377 108.453 71.5688 108.854C71.3994 108.382 71.2639 107.899 71.1137 107.423C71.9924 107.104 72.8574 106.752 73.6966 106.34C72.9715 106.12 72.1968 106.107 71.4887 105.829C71.09 105.68 70.7873 105.323 70.6597 104.924C70.4022 104.132 70.6416 103.283 70.9059 102.526C71.5316 101.31 73.3374 101.154 74.3629 101.937C75.0665 102.499 74.9818 103.494 75.1591 104.29C75.481 104.258 75.804 104.224 76.1258 104.182C76.1281 103.488 76.1654 102.796 76.1767 102.102C76.6578 102.059 77.1423 102.078 77.6245 102.071C77.6448 102.53 77.6527 102.99 77.6697 103.451C78.4647 102.519 79.4462 101.507 80.754 101.469C81.3762 101.504 82.1115 101.464 82.5756 101.96C83.1764 102.588 83.2995 103.501 83.3876 104.329C84.6695 104.342 85.9581 104.296 87.223 104.075C87.3664 103.777 87.5166 103.481 87.6623 103.185C87.0536 102.998 86.4493 102.792 85.8271 102.66C85.6961 103.032 85.5436 103.395 85.3968 103.761C84.9473 103.737 84.5046 103.647 84.0585 103.6C84.2493 102.884 84.3691 102.067 84.9428 101.543ZM72.1945 104.257C72.653 104.241 73.1161 104.279 73.5701 104.198C73.4797 103.905 73.4752 103.599 73.4617 103.297C73.0573 103.303 72.6542 103.311 72.251 103.32C72.2318 103.632 72.2126 103.943 72.1945 104.257ZM78.8916 104.174C79.82 104.253 80.7562 104.29 81.6868 104.217C81.6484 103.903 81.6247 103.589 81.6191 103.275C80.6365 103.153 79.5523 103.385 78.8916 104.174ZM93.3046 103.307C93.2504 103.617 93.2187 103.931 93.1984 104.246C93.6513 104.246 94.1053 104.247 94.5604 104.246C94.5435 103.932 94.5254 103.618 94.5074 103.305C94.1064 103.307 93.7055 103.314 93.3046 103.307Z" fill="#FA0109"/>
<path d="M26.4057 102.412C27.1454 101.223 29.0574 101.163 30.0004 102.133C30.4691 102.598 30.4544 103.296 30.5132 103.906C30.5798 104.983 30.5753 106.13 30.0738 107.113C29.4041 108.174 28.0907 108.46 26.9771 108.823C26.8585 108.347 26.6948 107.885 26.5649 107.413C27.4729 107.121 28.4363 106.817 29.0969 106.088C28.5435 106.036 27.989 106.033 27.4356 105.998C26.6259 105.943 25.9596 105.157 25.9934 104.357C25.9731 103.688 26.1256 103.015 26.4057 102.412ZM27.4594 104.21C27.9574 104.22 28.4555 104.236 28.9535 104.252C28.9162 103.936 28.8824 103.62 28.8654 103.305C28.4972 103.298 28.1291 103.294 27.7609 103.289C27.6604 103.595 27.5587 103.903 27.4594 104.21Z" fill="#FA0109"/>
<path d="M40.5871 101.674C41.0783 101.666 41.5707 101.668 42.0631 101.669C42.0439 102.49 42.1207 103.313 42.0654 104.134C42.0157 104.718 41.8034 105.337 41.2884 105.668C40.5611 106.144 39.6508 106.096 38.8185 106.143C38.6333 106.951 38.2662 107.799 37.5129 108.227C36.9957 108.544 36.37 108.44 35.7963 108.471C34.9685 108.495 34.0831 108.576 33.3241 108.176C32.5483 107.765 32.1202 106.897 32.0344 106.048C31.9519 105.047 32.0852 104.041 32.0355 103.04C32.5347 103.031 33.0339 103.03 33.5331 103.024C33.5093 104.217 33.5229 105.426 33.8278 106.589C35.0125 106.719 36.256 106.794 37.4011 106.397C36.693 106.096 35.9115 106.099 35.1571 106.081C35.0859 105.503 35.0566 104.922 35.0362 104.342C36.876 104.318 38.7191 104.355 40.5543 104.205C40.5622 103.362 40.5792 102.518 40.5871 101.674Z" fill="#FA0109"/>
<path d="M55.8188 101.61C56.3078 101.639 56.7968 101.673 57.2881 101.687C57.3107 102.343 57.2361 103.004 57.3344 103.656C57.3796 103.826 57.4259 104.019 57.5682 104.137C59.164 104.44 60.7982 104.316 62.4086 104.237C62.4775 103.36 62.4775 102.477 62.6153 101.609C63.0862 101.619 63.5561 101.681 64.0281 101.681C63.9807 102.727 64.2043 103.817 63.8384 104.828C63.6453 105.328 63.2579 105.867 62.6774 105.911C60.9303 106.179 59.1414 106.208 57.3897 105.959C56.7133 105.859 56.1813 105.306 55.9543 104.683C55.5884 103.703 55.6867 102.626 55.8188 101.61Z" fill="#FA0109"/>
<path d="M39.0985 107.278C39.5221 107.277 39.9467 107.277 40.3713 107.278C40.3747 107.758 40.3725 108.239 40.3759 108.72C39.949 108.72 39.5232 108.719 39.0974 108.715C39.1008 108.235 39.0963 107.756 39.0985 107.278Z" fill="#FA0109"/>
<path d="M49.5926 107.296C50.5074 107.305 51.4222 107.274 52.3369 107.299C52.3358 107.771 52.3358 108.243 52.3369 108.716C52.119 108.72 51.9021 108.726 51.6853 108.733C51.6842 109.099 51.6808 109.466 51.6684 109.834C51.2144 109.828 50.7604 109.827 50.3063 109.836C50.2996 109.465 50.3018 109.094 50.3075 108.725C50.0726 108.716 49.8388 108.708 49.605 108.701C49.5982 108.233 49.5937 107.764 49.5926 107.296Z" fill="#FA0109"/>
<path d="M40.5091 73.9902C44.6618 70.845 48.7851 67.6602 52.9513 64.5318C53.8729 65.7064 54.7933 66.8809 55.7138 68.0566C53.3252 69.8952 50.9388 71.7372 48.5163 73.5329C51.8073 73.5746 55.0994 73.5261 58.3904 73.5532C59.4011 73.5724 60.4334 73.4945 61.4148 73.7881C63.6713 74.3946 65.5449 76.2953 66.0181 78.5969C66.1954 79.4767 66.1751 80.3847 66.3761 81.26C66.6923 82.2357 68.1198 82.5305 68.8291 81.8077C69.2842 81.4474 69.3633 80.8353 69.37 80.2955C69.3971 78.4162 69.344 76.537 69.3712 74.6577C70.8811 74.6566 72.3911 74.6577 73.901 74.6577C73.9496 76.8012 73.805 78.9493 73.9631 81.0894C74.0727 81.8619 74.9367 82.2786 75.6538 82.1657C76.284 82.1059 76.9017 81.6202 76.939 80.9584C77.0915 78.8725 76.956 76.782 76.9876 74.6938C78.4964 74.695 80.0041 74.6803 81.5129 74.6859C81.4779 77.2044 81.6135 79.7285 81.3695 82.2402C82.0663 82.2267 82.7643 82.2109 83.4622 82.2177C83.137 80.6727 83.0432 78.9911 83.7242 77.524C84.6594 75.2517 86.9949 73.6379 89.4535 73.5758C91.7461 73.5035 94.041 73.569 96.3336 73.5419C96.32 77.9261 96.3336 82.3091 96.3268 86.6933C89.6263 86.7193 82.9258 86.6719 76.2253 86.6933C75.586 86.6832 74.9389 86.7351 74.3087 86.603C73.351 86.4132 72.4735 85.9592 71.6423 85.4634C69.352 87.0954 66.0147 87.0728 63.7955 85.3211C62.6571 86.0044 61.4204 86.6572 60.0607 86.6775C52.1393 86.6956 44.2168 86.6775 36.2955 86.6922C36.2955 85.4906 36.2853 84.2889 36.3328 83.0884C35.6145 84.5216 34.3948 85.7255 32.8904 86.3105C32.0592 86.6436 31.1501 86.7317 30.2613 86.6911C29.0574 86.6086 27.954 86.0564 26.9274 85.4623C25.3723 86.5363 23.4162 86.8255 21.5652 86.7024C21.4342 88.5963 20.8108 90.4993 19.5707 91.9618C18.5362 93.1522 17.1686 94.0658 15.6439 94.4904C13.4801 95.115 11.0418 94.8507 9.12186 93.6468C6.83603 92.2961 5.27977 89.7471 5.21991 87.0807C5.17925 84.9304 5.21539 82.7801 5.20862 80.6298C6.70051 80.6286 8.1924 80.6286 9.68428 80.6298C9.69445 82.4774 9.65944 84.3251 9.68767 86.1727C9.70574 86.6945 9.67864 87.2298 9.83675 87.7357C10.3292 89.4173 12.1621 90.6156 13.9025 90.2983C15.3413 90.0701 16.5903 88.9227 16.9145 87.4997C17.0195 87.0638 16.9935 86.612 17.0003 86.167C17.0263 82.3408 17.0511 78.5133 17.0398 74.6859C18.5317 74.6859 20.0236 74.6848 21.5144 74.6871C21.5144 77.2078 21.5144 79.7285 21.5155 82.2493C22.2372 82.1951 22.9859 82.3091 23.685 82.0776C24.0904 81.9364 24.4925 81.6033 24.5286 81.1493C24.7726 78.9899 24.5648 76.817 24.6325 74.6509C26.1504 74.66 27.6671 74.6622 29.1839 74.6498C29.2415 76.799 29.0676 78.9527 29.2573 81.0973C29.3601 81.8687 30.2342 82.2933 30.9502 82.1657C31.5781 82.0946 32.1789 81.6112 32.2399 80.9573C32.3947 78.8702 32.2456 76.7753 32.2941 74.6848C33.7838 74.6984 35.2734 74.6893 36.7619 74.7085C36.7088 77.2157 36.8455 79.7274 36.6546 82.2312C44.384 82.1714 52.1133 82.2707 59.8427 82.1781C60.9269 82.1714 61.7197 81.0951 61.7073 80.0696C61.7446 79.1277 60.9879 78.2479 60.0663 78.1011C59.4011 77.9825 58.7224 78.0277 58.0515 78.0187C52.2037 78.0345 46.3559 78.0164 40.5091 78.0322C40.508 76.6849 40.508 75.3376 40.5091 73.9902ZM89.2017 78.1429C88.6076 78.2965 88.1039 78.7347 87.8498 79.2904C87.3845 80.3158 87.9424 81.6891 89.0187 82.0539C89.9448 82.2583 90.9025 82.1612 91.8444 82.1894C91.8455 80.798 91.8455 79.4055 91.8444 78.0142C90.9646 78.056 90.0645 77.9125 89.2017 78.1429Z" fill="#2C3191"/>
<path d="M76.9944 66.9713C78.5054 66.9713 80.0165 66.9701 81.5276 66.9724C81.5084 68.3796 81.5141 69.7868 81.5197 71.1939C80.0222 71.4492 78.4829 71.4469 76.9865 71.1872C76.9944 69.7822 77.0068 68.3773 76.9944 66.9713Z" fill="#2C3191"/>
<path d="M89.7211 66.9645C91.2108 66.9746 92.7004 66.9746 94.1912 66.9633C94.1821 68.3739 94.1957 69.7856 94.1844 71.1962C92.7094 71.4526 91.195 71.4458 89.7211 71.1894C89.72 69.7811 89.7211 68.3728 89.7211 66.9645Z" fill="#2C3191"/>
<path d="M90.497 89.7742C90.9657 89.0017 91.5055 88.2699 92.1538 87.6386C92.2419 87.9074 92.3288 88.1784 92.4158 88.4495C92.2046 88.4743 91.9968 88.5014 91.789 88.5274C91.9573 88.733 92.1278 88.9374 92.2995 89.1429C92.5253 88.7578 92.7343 88.3637 92.9816 87.9921C93.2312 88.1671 93.5418 88.4122 93.4367 88.7623C93.2764 89.3146 92.8009 89.6884 92.4689 90.1356C93.4164 90.1526 94.3775 90.0633 95.3137 90.2463C96.224 90.5558 96.3482 91.8444 95.8558 92.5592C95.6209 92.9285 95.1681 93.0268 94.7615 93.037C93.3577 93.1499 91.9505 93.0595 90.5456 93.0528C90.0995 94.0692 89.0593 94.6723 88 94.8518C87.9932 94.0477 88.7307 93.6095 89.3767 93.3317C89.4591 92.3695 89.4704 91.405 89.4919 90.4406C89.781 90.4394 90.0712 90.4394 90.3615 90.4406C90.3886 90.9646 90.4123 91.4897 90.4383 92.0149C92.0058 92.0138 93.5734 92.016 95.1409 92.0138C95.1409 91.7235 95.1443 91.4355 95.1489 91.1475C93.6807 91.1453 92.2125 91.1543 90.7443 91.1227C90.9894 90.6404 91.2345 90.1593 91.4796 89.6771C91.1509 89.7087 90.8245 89.7426 90.497 89.7742Z" fill="#2C3191"/>
<path d="M81.8901 92.2521C81.7004 91.2605 82.2188 90.331 82.4243 89.3857C83.1087 89.8906 83.9591 90.2079 84.4798 90.9092C84.8321 91.3723 84.7463 92.0171 84.4899 92.5039C83.9264 93.4413 82.229 93.3295 81.8901 92.2521ZM82.9371 91.0606C82.5937 91.4615 82.8479 91.9889 83.1358 92.3368C83.4295 92.1154 83.7209 91.8918 84.0134 91.6682C83.6633 91.4615 83.3425 91.1238 82.9371 91.0606Z" fill="#2C3191"/>
<path d="M65.0163 89.8838C67.9594 89.877 70.9025 89.8928 73.8468 89.8906C73.8457 91.1961 73.8479 92.5016 73.8457 93.8072C72.3447 93.9766 70.8585 94.2962 69.3463 94.3335C67.8894 94.2544 66.4528 93.9777 65.0073 93.7925C65.0253 92.4892 65.0107 91.1871 65.0163 89.8838Z" fill="#2C3191"/>
<path d="M85.2365 91.2255C85.4578 90.156 86.9576 89.7584 87.729 90.4925C88.1841 91.2706 88.1028 92.2216 87.9842 93.081C87.9447 93.4481 87.808 93.8196 87.5155 94.0613C87.0254 94.4758 86.3816 94.6248 85.8091 94.8869C85.7436 94.5763 85.6803 94.268 85.6182 93.9585C86.1716 93.7202 86.7272 93.4865 87.2829 93.2493C86.6877 93.1115 86.0293 93.0675 85.5279 92.6846C85.0863 92.339 85.1857 91.7134 85.2365 91.2255ZM85.957 91.9178C86.3726 91.9539 86.7871 91.9912 87.2038 92.0273C87.0932 91.6399 86.9813 91.2537 86.8718 90.8675C86.5601 91.2119 86.2518 91.5598 85.957 91.9178Z" fill="#2C3191"/>
</g>
<defs>
<clipPath id="clip0_47_490">
<rect width="101.417" height="110" fill="white"/>
</clipPath>
</defs>
</svg>
